<?xml version="1.0" encoding="utf-8"?>
<!-- Generator: Adobe Illustrator 25.4.0, SVG Export Plug-In . SVG Version: 6.00 Build 0)  -->
<svg version="1.1" xmlns="http://www.w3.org/2000/svg" xmlns:xlink="http://www.w3.org/1999/xlink" x="0px" y="0px"
	 viewBox="0 0 319 89" style="enable-background:new 0 0 319 89;" xml:space="preserve">
<style type="text/css">
	.st0{display:none;}
	.st1{fill:#1A1A1A;}
	.st2{fill:#CE5C5C;}
</style>
<g id="Layer_1" class="st0">
</g>
<g id="Layer_2">
	<path class="st1" d="M123.9,65.3c-2.5,0-5-0.5-7.4-1.4c-2.4-1-4.5-2.3-6.3-4.1l3.9-4.6c1.3,1.3,2.9,2.3,4.6,3.1s3.5,1.2,5.2,1.2
		c2.2,0,3.8-0.4,4.9-1.3c1.1-0.9,1.7-2.1,1.7-3.5c0-0.8-0.1-1.4-0.4-2c-0.3-0.5-0.7-1-1.2-1.4s-1.1-0.8-1.8-1.1
		c-0.7-0.3-1.5-0.7-2.3-1l-5.2-2.3c-0.9-0.4-1.8-0.9-2.7-1.4c-0.9-0.6-1.7-1.3-2.5-2.1c-0.7-0.8-1.3-1.8-1.8-2.8
		c-0.4-1.1-0.7-2.3-0.7-3.7c0-1.5,0.3-2.9,1-4.2c0.6-1.3,1.5-2.4,2.6-3.4s2.5-1.7,4-2.3c1.6-0.5,3.3-0.8,5.1-0.8
		c2.2,0,4.3,0.4,6.4,1.3c2,0.9,3.8,2,5.3,3.5l-3.4,4.3c-1.2-1-2.5-1.8-3.8-2.4c-1.3-0.6-2.8-0.9-4.4-0.9c-1.8,0-3.3,0.4-4.3,1.2
		c-1.1,0.8-1.6,1.9-1.6,3.3c0,0.7,0.2,1.4,0.5,1.9s0.8,1,1.3,1.4c0.6,0.4,1.2,0.8,1.9,1.1c0.7,0.3,1.5,0.6,2.3,1l5.1,2.1
		c1.1,0.5,2.1,1,3.1,1.6c0.9,0.6,1.7,1.3,2.4,2.1s1.2,1.7,1.6,2.8c0.4,1.1,0.6,2.3,0.6,3.7c0,1.5-0.3,3-0.9,4.3
		c-0.6,1.3-1.5,2.5-2.7,3.6c-1.2,1-2.6,1.8-4.3,2.4C127.9,65,126,65.3,123.9,65.3z M155.5,64.6v-14l-11.3-23.7h7.2l4.1,9.6
		c0.5,1.4,1.1,2.8,1.6,4.1s1.1,2.7,1.7,4.2h0.2c0.6-1.5,1.2-2.9,1.8-4.2s1.1-2.7,1.7-4.1l4.1-9.6h7l-11.4,23.7v14
		C162.2,64.6,155.5,64.6,155.5,64.6z M183.9,64.6V26.8h6.7v32.1h15.7v5.7H183.9z M220.9,64.6l-11.8-37.8h7.1l5.3,19
		c0.6,2.2,1.2,4.2,1.6,6.1c0.5,1.9,1,4,1.7,6.2h0.2c0.7-2.2,1.2-4.3,1.7-6.2s1-4,1.6-6.1l5.3-19h6.9l-11.7,37.8H220.9z M250.9,64.6
		V26.8h6.7v37.8H250.9z M268.1,64.6l12.3-37.8h7.9l12.3,37.8h-7l-3.1-10.3h-12.7l-2.9,10.2L268.1,64.6L268.1,64.6z M280.7,44.5
		l-1.3,4.6h9.6l-1.3-4.6c-0.6-2-1.2-4.1-1.8-6.2c-0.6-2.1-1.1-4.2-1.6-6.3h-0.2c-0.5,2.1-1.1,4.2-1.6,6.3
		C281.9,40.4,281.3,42.5,280.7,44.5z"/>
</g>
<g id="Layer_4">
	<path class="st2" d="M22.5,68C9.5,56.8,8,37.2,19.2,24.1S48.4,5,61.4,16.2s20,37.2,8.8,50.2S35.6,79.2,22.5,68z"/>
</g>
<g id="Layer_3">
	<path class="st1" d="M53,48.9c-1.4-1.5-3.1-2.4-5.2-2.9v-0.2c1.7-0.6,3-1.7,3.9-3.2c0.9-1.5,1.4-3.2,1.4-5c0-1.7-0.3-3.2-1-4.4
		c-0.6-1.2-1.6-2.2-2.8-2.9c-1.2-0.8-2.7-1.3-4.3-1.6s-3.4-0.5-5.4-0.5H27.5V66v0.1h13.1c2.1,0,4-0.3,5.8-0.7
		c1.8-0.5,3.3-1.2,4.6-2.1c1.3-1,2.3-2.1,3-3.5c0.7-1.4,1.1-3,1.1-4.9C55.1,52.4,54.4,50.4,53,48.9z M34.3,33.4h4.9
		c2.4,0,4.3,0.4,5.5,1.2c1.2,0.7,1.8,2.1,1.8,3.9c0,1.6-0.6,2.9-1.8,3.9c-1.1,0.9-3,1.4-5.7,1.4h-4.7V33.4z M46.3,59.3
		c-1.5,1-3.6,1.5-6.4,1.5h-5.7v-12h5.7c2.9,0,5,0.5,6.5,1.4c1.5,0.9,2.2,2.4,2.2,4.4C48.6,56.7,47.8,58.3,46.3,59.3z M70.9,66.7
		c-1.2,0-2.3-0.4-3.1-1.3c-0.8-0.8-1.2-1.9-1.2-3.2s0.4-2.4,1.2-3.2c0.8-0.8,1.9-1.3,3.1-1.3s2.3,0.4,3.1,1.3
		c0.8,0.8,1.2,1.9,1.2,3.2s-0.4,2.4-1.2,3.2C73.2,66.2,72.2,66.7,70.9,66.7z"/>
</g>
<g id="Layer_5">
	<g>
		<path class="st1" d="M4,4v82.7h313V4H4z M6.5,6.5h86.7v77.6H6.5V6.5z M314.5,84.2H95.8V6.5h218.7V84.2z"/>
	</g>
</g>
</svg>
